<?xml version="1.0" encoding="UTF-8" standalone="no"?>
<svg
   xmlns:dc="http://purl.org/dc/elements/1.1/"
   xmlns:cc="http://creativecommons.org/ns#"
   xmlns:rdf="http://www.w3.org/1999/02/22-rdf-syntax-ns#"
   xmlns:svg="http://www.w3.org/2000/svg"
   xmlns="http://www.w3.org/2000/svg"
   xmlns:sodipodi="http://sodipodi.sourceforge.net/DTD/sodipodi-0.dtd"
   xmlns:inkscape="http://www.inkscape.org/namespaces/inkscape"
   version="1.1"
   id="Your_Icon"
   x="0px"
   y="0px"
   viewBox="5.0 -10.0 100.0 135.0"
   enable-background="new 0 0 100 100"
   xml:space="preserve"
   height="100px"
   width="100px"
   inkscape:version="0.48.4 r9939"
   sodipodi:docname="noun_81602_cc.svg"><metadata
   id="metadata3041"><rdf:RDF><cc:Work
       rdf:about=""><dc:format>image/svg+xml</dc:format><dc:type
         rdf:resource="http://purl.org/dc/dcmitype/StillImage" /><dc:title></dc:title></cc:Work></rdf:RDF></metadata><defs
   id="defs3039" /><sodipodi:namedview
   pagecolor="#ffffff"
   bordercolor="#666666"
   borderopacity="1"
   objecttolerance="10"
   gridtolerance="10"
   guidetolerance="10"
   inkscape:pageopacity="0"
   inkscape:pageshadow="2"
   inkscape:window-width="900"
   inkscape:window-height="861"
   id="namedview3037"
   showgrid="false"
   inkscape:zoom="5.59"
   inkscape:cx="50"
   inkscape:cy="47.885123"
   inkscape:window-x="0"
   inkscape:window-y="0"
   inkscape:window-maximized="0"
   inkscape:current-layer="Your_Icon" />
<g
   id="g3015"
   inkscape:export-xdpi="72"
   inkscape:export-ydpi="72">
	<g
   id="g3017">
		<g
   id="g3019">
			<g
   id="g3021">
			</g>
		</g>
		<g
   id="g3023">
		</g>
	</g>
</g>
<path
   d="M94.954,36.849l-0.073-8.211l-5.677,3.341l0.015,1.626l-5.555,3.274l-5.607-3.174l-0.064-6.442l5.561-3.274l1.41,0.798  l5.686-3.347l-7.151-4.045l-11.242,6.621l-9.956,15.256c-3.761,2.397-8.074,5.083-12.554,7.718  c-5.516,3.253-10.949,6.244-15.454,8.641l-17.915,1.307L5.149,63.554l0.113,13.042l11.345,6.42l11.232-6.621l8.653-13.246  c4.453-2.906,10.307-6.621,16.858-10.486c5.257-3.094,10.157-5.817,14.269-8.025l16.099-1.17L94.954,36.849z M16.552,76.416  l-5.607-3.164l-0.055-6.448l5.549-3.268l5.607,3.164l0.061,6.448L16.552,76.416z"
   id="path3025"
   inkscape:export-filename="C:\Users\Rob Chartier\Desktop\g3015.png"
   inkscape:export-xdpi="72"
   inkscape:export-ydpi="72" />
<g
   id="g3027"
   inkscape:export-filename="C:\Users\Rob Chartier\Desktop\g3015.png"
   inkscape:export-xdpi="72"
   inkscape:export-ydpi="72">
	<path
   d="M15.141,55.026l0.777-0.442l11.115-0.811c-0.206-1.312-0.328-2.639-0.307-3.957c0.043-2.857,0.621-5.699,1.689-8.345   c1.077-2.648,2.644-5.106,4.605-7.187c1.962-2.087,4.308-3.797,6.883-5.031c2.568-1.225,5.381-1.996,8.24-2.205   c2.853-0.215,5.736,0.082,8.466,0.904c2.745,0.833,5.329,2.167,7.593,3.926c0.044,0.034,0.078,0.079,0.121,0.114l3.594-5.357   c-0.535-0.399-1.072-0.8-1.635-1.168c0.539-1.87,0.958-3.739,1.296-5.68c-0.887-0.516-1.795-1.002-2.731-1.44   c-1.503,1.312-2.919,2.741-4.208,4.195c-0.723-0.271-1.437-0.531-2.17-0.741c-0.726-0.219-1.466-0.416-2.212-0.575   c-0.178-1.918-0.449-3.856-0.848-5.768c-1.016-0.17-2.041-0.277-3.07-0.347c-0.926,1.779-1.732,3.585-2.408,5.43   c-0.762-0.009-1.522,0.044-2.288,0.093c-0.766,0.059-1.519,0.14-2.275,0.264c-0.857-1.743-1.808-3.407-2.866-5.078   c-1.003,0.224-2,0.473-2.99,0.787c-0.23,1.977-0.311,3.988-0.289,5.933c-0.705,0.281-1.416,0.565-2.097,0.906   c-0.695,0.319-1.36,0.692-2.031,1.065c-1.407-1.291-2.933-2.545-4.506-3.692c-0.866,0.566-1.694,1.177-2.507,1.817   c0.52,1.948,1.14,3.807,1.883,5.641c-0.576,0.505-1.099,1.054-1.634,1.605c-0.512,0.558-1.021,1.127-1.498,1.725   c-1.809-0.71-3.632-1.295-5.54-1.821c-0.593,0.848-1.158,1.702-1.677,2.598c1.175,1.62,2.443,3.149,3.785,4.583   c-0.341,0.675-0.656,1.37-0.941,2.086c-0.282,0.706-0.561,1.413-0.776,2.146c-1.933-0.015-3.877,0.09-5.82,0.302   c-0.256,1-0.472,2.013-0.633,3.029c1.676,1.089,3.421,2.059,5.187,2.905c-0.061,0.765-0.122,1.523-0.121,2.286   c-0.018,0.761,0.016,1.526,0.054,2.282c-1.797,0.699-3.563,1.489-5.316,2.394C15.062,54.608,15.11,54.815,15.141,55.026z"
   id="path3029" />
	<path
   d="M79.225,45.958l-6.403,0.465c0.437,2.775,0.399,5.612-0.153,8.362c-0.565,2.8-1.655,5.491-3.197,7.907   c-1.541,2.41-3.542,4.532-5.856,6.216c-2.292,1.693-4.907,2.936-7.675,3.673c-2.773,0.756-5.68,0.964-8.504,0.661   c-2.839-0.303-5.627-1.135-8.17-2.452c-1.303-0.675-2.534-1.48-3.686-2.387l-6.683,9.907c0.174,0.131,0.336,0.276,0.513,0.403   c1.73-1.033,3.368-2.139,4.907-3.354c0.646,0.41,1.32,0.772,1.99,1.131c0.684,0.339,1.362,0.686,2.068,0.967   c-0.184,1.931-0.262,3.86-0.23,5.827c0.967,0.336,1.948,0.661,2.958,0.905c1.229-1.564,2.359-3.219,3.367-4.888   c0.748,0.125,1.502,0.256,2.265,0.329c0.756,0.094,1.517,0.119,2.283,0.161c0.521,1.84,1.157,3.701,1.883,5.509   c1.045-0.031,2.062-0.115,3.087-0.215c0.587-1.947,1.039-3.853,1.368-5.796c0.756-0.133,1.494-0.31,2.233-0.509   c0.724-0.2,1.463-0.405,2.18-0.673c1.157,1.536,2.41,3.045,3.749,4.47c0.959-0.396,1.884-0.847,2.796-1.32   c-0.134-2.005-0.413-3.973-0.802-5.897c0.642-0.396,1.28-0.824,1.898-1.28c0.617-0.441,1.207-0.924,1.796-1.418   c1.631,1.021,3.336,1.949,5.111,2.804c0.738-0.719,1.44-1.465,2.123-2.239c-0.872-1.834-1.811-3.545-2.888-5.202   c0.466-0.604,0.884-1.238,1.314-1.87c0.389-0.656,0.799-1.302,1.153-1.982c1.903,0.372,3.808,0.618,5.774,0.78   c0.43-0.945,0.833-1.893,1.175-2.86c-1.432-1.373-2.992-2.66-4.556-3.815c0.21-0.73,0.404-1.464,0.551-2.211   c0.162-0.752,0.262-1.513,0.366-2.263c1.878-0.349,3.8-0.806,5.666-1.384c0.076-1.022,0.081-2.061,0.062-3.089   c-1.871-0.757-3.734-1.391-5.64-1.893C79.386,46.944,79.3,46.452,79.225,45.958z"
   id="path3031" />
</g>
</svg>